<?xml version="1.0" standalone="no"?><!DOCTYPE svg PUBLIC "-//W3C//DTD SVG 1.1//EN" "http://www.w3.org/Graphics/SVG/1.1/DTD/svg11.dtd"><svg t="1559620295813" class="icon" style="" viewBox="0 0 1024 1024" version="1.1" xmlns="http://www.w3.org/2000/svg" p-id="3276" xmlns:xlink="http://www.w3.org/1999/xlink" width="200" height="200"><defs><style type="text/css"></style></defs><path d="M513 892.3c-49.3 0-97.2-9.7-142.3-28.7-43.5-18.4-82.6-44.8-116.2-78.3-33.6-33.6-59.9-72.7-78.3-116.2-19.1-45.1-28.7-93-28.7-142.3 0-54.9 11.9-107.8 35.4-157 1.8-3.8 3.7-7.6 5.6-11.3 8.9-17.2 30.1-23.9 47.3-15 17.2 8.9 23.9 30.1 15 47.3-1.6 3-3.1 6-4.5 9.1-18.9 39.8-28.5 82.4-28.5 126.9 0 78.9 30.7 153.1 86.5 208.9s130 86.5 208.9 86.5 153.1-30.7 208.9-86.5c55.8-55.8 86.5-130 86.5-208.9s-30.7-153.1-86.5-208.9c-55.8-55.8-130-86.5-208.9-86.5-73.9 0-144.6 27.4-199.1 77.1-14.3 13.1-36.5 12-49.6-2.3-13.1-14.3-12-36.5 2.3-49.6C334 194.9 421.5 161 513 161c49.3 0 97.2 9.7 142.3 28.7 43.5 18.4 82.6 44.8 116.2 78.3 33.6 33.6 59.9 72.7 78.3 116.2 19.1 45.1 28.7 93 28.7 142.3s-9.7 97.2-28.7 142.3c-18.4 43.5-44.8 82.6-78.3 116.2-33.6 33.6-72.7 59.9-116.2 78.3-45.1 19.3-93 29-142.3 29z" fill="#8AD8FF" p-id="3277"></path><path d="M512.6 930.9c-49 0-96.9-8.7-142.6-26-48.9-18.5-93.2-46-131.7-81.6s-69.3-77.8-91.5-125.1c-23-49-35.7-101.5-37.8-156-2.9-76.8 15.8-152.4 54.3-218.5 8.9-15.3 28.5-20.5 43.8-11.6 15.3 8.9 20.5 28.5 11.6 43.8-32.4 55.6-48.2 119.2-45.7 183.9 3.5 90.8 42.1 174.9 108.8 236.6s153.4 93.9 244.3 90.4c90.8-3.5 174.9-42.1 236.6-108.8 61.8-66.7 93.9-153.4 90.4-244.3s-42.2-175-108.9-236.7c-66.7-61.8-153.4-93.9-244.3-90.4-40.7 1.6-80.1 10.2-117.4 25.6-36 14.9-68.9 35.8-97.9 62.1-13.1 11.9-33.3 10.9-45.2-2.2-11.9-13.1-10.9-33.3 2.2-45.2 34.4-31.2 73.6-56 116.3-73.7 44.2-18.4 91.2-28.6 139.4-30.4 54.5-2.1 107.8 6.6 158.5 25.7 48.9 18.5 93.2 46 131.7 81.6 38.5 35.7 69.3 77.8 91.5 125.1 23 49 35.7 101.5 37.8 156s-6.6 107.8-25.7 158.5c-18.5 48.9-46 93.2-81.6 131.7-35.7 38.5-77.8 69.3-125.1 91.5-49 23-101.5 35.7-156 37.8-5.3 0.1-10.6 0.2-15.8 0.2z" fill="#0C92F2" p-id="3278"></path><path d="M464.2 600.2c-7.5-3.7-13.7-9.7-17.5-17.1-2.2-4.5-3.4-9-3.4-13.4V377.9c0-23.5 19.7-42.7 43.1-41.1 21.1 1.4 37.5 18.8 37.5 40.2v152.1c0 0.1 0.1 0.1 0.1 0.1h106.5c23.5 0 42.7 19.7 41.1 43.1-1.4 21.1-18.8 37.5-40.2 37.5H497c-8.7 0-17.4-2-25.2-5.9l-7.6-3.7z" fill="#0C92F2" p-id="3279"></path></svg>